<svg xmlns="http://www.w3.org/2000/svg" viewBox="0 0 100 100" width="100" height="100">
  <!-- Background Circle -->
  <circle cx="50" cy="50" r="45" fill="#007bff" />
  
  <!-- Memory Chip Design -->
  <rect x="30" y="30" width="40" height="40" rx="2" ry="2" fill="#ffffff" />
  
  <!-- Chip Lines -->
  <line x1="35" y1="30" x2="35" y2="70" stroke="#007bff" stroke-width="2" />
  <line x1="45" y1="30" x2="45" y2="70" stroke="#007bff" stroke-width="2" />
  <line x1="55" y1="30" x2="55" y2="70" stroke="#007bff" stroke-width="2" />
  <line x1="65" y1="30" x2="65" y2="70" stroke="#007bff" stroke-width="2" />
  
  <line x1="30" y1="35" x2="70" y2="35" stroke="#007bff" stroke-width="2" />
  <line x1="30" y1="45" x2="70" y2="45" stroke="#007bff" stroke-width="2" />
  <line x1="30" y1="55" x2="70" y2="55" stroke="#007bff" stroke-width="2" />
  <line x1="30" y1="65" x2="70" y2="65" stroke="#007bff" stroke-width="2" />
  
  <!-- Chip Pins -->
  <rect x="28" y="35" width="2" height="5" fill="#ffffff" />
  <rect x="28" y="45" width="2" height="5" fill="#ffffff" />
  <rect x="28" y="55" width="2" height="5" fill="#ffffff" />
  
  <rect x="70" y="35" width="2" height="5" fill="#ffffff" />
  <rect x="70" y="45" width="2" height="5" fill="#ffffff" />
  <rect x="70" y="55" width="2" height="5" fill="#ffffff" />
  
  <!-- Memory Usage Indicator -->
  <rect x="35" y="35" width="30" height="30" fill="#007bff" opacity="0.5" />
  
  <!-- Pulse Effect -->
  <circle cx="50" cy="50" r="20" fill="none" stroke="#ffffff" stroke-width="2" opacity="0.7">
    <animate attributeName="r" from="20" to="25" dur="1.5s" begin="0s" repeatCount="indefinite" />
    <animate attributeName="opacity" from="0.7" to="0" dur="1.5s" begin="0s" repeatCount="indefinite" />
  </circle>
</svg>